PathFileType	4	(X/Y/Z)	C:/Users/opensim2020/Desktop/walking_exp_matlab/subject06_walking13_straight_04.trc																																																																																																																																																				
DataRate	CameraRate	NumFrames	NumMarkers	Units	OrigDataRate	OrigDataStartFrame	OrigNumFrames																																																																																																																																																
100	100	8	50	mm	100	2936	204																																																																																																																																																
Frame#	Time	LFHD			RFHD			LBHD			RBHD			C7			T10			CLAV			STRN			RBAK			LSHO			LUPA			LELB			LFRM			LWRA			LWRB			LFIN			RSHO			RUPA			RELB			RFRM			RWRA			RWRB			RFIN			LASI			RASI			LPSI			RPSI			LTHI			LKNE			LTIB			LANK			LHEE			LTOE			RTHI			RKNE			RTIB			RANK			RHEE			RTOE			*39			*40			*41			*42			*43			*44			*45			*46			*47			*48			*49		
		X1	Y1	Z1	X2	Y2	Z2	X3	Y3	Z3	X4	Y4	Z4	X5	Y5	Z5	X6	Y6	Z6	X7	Y7	Z7	X8	Y8	Z8	X9	Y9	Z9	X10	Y10	Z10	X11	Y11	Z11	X12	Y12	Z12	X13	Y13	Z13	X14	Y14	Z14	X15	Y15	Z15	X16	Y16	Z16	X17	Y17	Z17	X18	Y18	Z18	X19	Y19	Z19	X20	Y20	Z20	X21	Y21	Z21	X22	Y22	Z22	X23	Y23	Z23	X24	Y24	Z24	X25	Y25	Z25	X26	Y26	Z26	X27	Y27	Z27	X28	Y28	Z28	X29	Y29	Z29	X30	Y30	Z30	X31	Y31	Z31	X32	Y32	Z32	X33	Y33	Z33	X34	Y34	Z34	X35	Y35	Z35	X36	Y36	Z36	X37	Y37	Z37	X38	Y38	Z38	X39	Y39	Z39	X40	Y40	Z40	X41	Y41	Z41	X42	Y42	Z42	X43	Y43	Z43	X44	Y44	Z44	X45	Y45	Z45	X46	Y46	Z46	X47	Y47	Z47	X48	Y48	Z48	X49	Y49	Z49	X50	Y50	Z50
																																																																																																																																																							
77	0.76	-517.39856	1648.24829	-1495.39209	-521.34277	1636.37952	-1364.36267	-652.33246	1594.60925	-1499.30029	-653.84674	1588.70935	-1370.80176	-655.64923	1434.81641	-1439.91211	-690.03046	1104.84058	-1427.37732	-543.43762	1358.03723	-1439.51111	-505.94739	1182.34509	-1440.46155	-727.32043	1265.47974	-1354.49341	-604.34863	1386.97864	-1600.66907	-664.25342	1195.90234	-1666.4574	-707.31744	1091.48364	-1670.2207	-740.32928	943.43579	-1684.07434	-736.87317	818.29077	-1630.32666	-787.51251	834.1814	-1678.04028	-786.50836	742.95844	-1665.1095	-590.46997	1394.58289	-1278.97083	-601.84979	1200.672	-1178.5752	-562.50732	1089.50684	-1155.65137	-479.59433	1008.16772	-1141.79883	-347.58795	946.42346	-1188.57593	-381.14072	914.435	-1140.05249	-302.15549	886.77313	-1145.70215	-502.91269	954.03363	-1534.18616	-515.9093	949.64935	-1315.74438	-663.77277	971.46198	-1517.82349	-665.23065	972.55865	-1349.19702	-501.85867	644.50763	-1611.22766	-444.59848	494.33426	-1581.328	-404.87762	241.7666	-1576.60999	-347.02744	76.6675	-1538.64099	-378.1051	50.85238	-1490.81787	-200.03935	89.64246	-1538.06348	-611.9306	617.2171	-1278.16321	-635.43616	492.11337	-1301.11023	-789.638	266.77316	-1312.18921	-885.86017	108.41486	-1360.42078	-931.85162	98.50898	-1406.59644	-754.34808	37.16787	-1354.17969	-619.66394	1687.16553	-1438.51892	NaN	NaN	NaN	NaN	NaN	NaN	NaN	NaN	NaN	NaN	NaN	NaN	NaN	NaN	NaN	NaN	NaN	NaN	NaN	NaN	NaN	NaN	NaN	NaN	NaN	NaN	NaN	NaN	NaN	NaN
78	0.77	-506.26138	1647.77271	-1496.09045	-510.35114	1635.70056	-1365.03674	-641.19531	1594.12817	-1500.15039	-642.88605	1588.10095	-1371.6488	-644.63843	1434.07971	-1440.88733	-678.31104	1104.05188	-1428.57898	-532.2702	1357.54993	-1440.46387	-494.36389	1181.96814	-1441.47327	-716.16052	1264.59717	-1355.672	-593.10175	1386.55847	-1601.67712	-652.95844	1195.46997	-1667.27832	-696.06952	1091.03235	-1670.8175	-729.23199	942.953	-1684.31934	-726.29474	818.05859	-1630.11011	-776.52728	833.83716	-1678.25769	-776.07635	742.64325	-1664.73999	-579.70154	1393.91772	-1279.95947	-590.83057	1199.90332	-1179.92017	-551.37836	1088.68274	-1156.93237	-468.69302	1006.7276	-1143.24084	-337.04205	944.12939	-1189.82629	-370.93695	912.31287	-1141.50732	-292.1106	884.18793	-1146.97681	-490.01569	953.92993	-1535.25269	-504.05533	949.33905	-1316.62549	-651.04694	970.76685	-1519.00635	-653.2326	971.68445	-1350.56726	-488.48526	644.34558	-1610.59558	-431.20563	494.13242	-1580.91431	-393.78558	240.69841	-1575.77869	-338.2226	75.03268	-1537.03125	-370.13376	49.32767	-1489.68494	-191.15642	87.38414	-1534.89771	-599.93512	616.75073	-1278.70959	-623.31256	491.54715	-1301.11304	-782.24042	269.24689	-1312.41418	-882.41577	113.57724	-1360.35608	-928.46594	105.23395	-1406.7439	-753.75415	37.32078	-1354.25366	-608.48096	1686.57581	-1439.17651	NaN	NaN	NaN	NaN	NaN	NaN	NaN	NaN	NaN	NaN	NaN	NaN	NaN	NaN	NaN	NaN	NaN	NaN	NaN	NaN	NaN	NaN	NaN	NaN	NaN	NaN	NaN	NaN	NaN	NaN
79	0.78	-495.12845	1647.32153	-1496.74329	-499.35358	1635.15088	-1365.73083	-630.04956	1593.78967	-1501.02063	-631.83746	1587.62207	-1372.50159	-633.59851	1433.47766	-1442.0564	-666.4126	1103.40759	-1429.81458	-521.06873	1357.15149	-1441.45557	-482.64786	1181.77844	-1442.56421	-704.97272	1263.92444	-1356.93884	-581.7431	1386.25586	-1602.73853	-641.32501	1195.07092	-1668.19116	-684.47644	1090.63147	-1671.58496	-717.54034	942.49817	-1684.7865	-716.96405	817.28314	-1628.2627	-764.64404	833.27985	-1678.53186	-764.6637	742.19403	-1664.50195	-568.89655	1393.39502	-1281.10144	-579.83923	1199.29932	-1181.39709	-540.04608	1087.91089	-1158.70325	-458.09528	1005.18707	-1144.75806	-326.9447	941.42413	-1191.31226	-361.43918	909.62793	-1143.01599	-282.53619	881.01184	-1148.42969	-477.05396	953.89514	-1535.99988	-492.08194	949.1413	-1317.52246	-637.7879	970.19775	-1520.18018	-640.93323	970.97693	-1351.96973	-474.62924	644.32813	-1609.90662	-417.79526	493.80258	-1580.328	-383.53238	239.38878	-1574.95349	-331.11774	73.03558	-1535.61267	-364.20477	47.97779	-1488.99854	-184.30374	83.89056	-1531.36548	-587.52631	616.15698	-1279.0614	-609.99957	490.75726	-1301.20703	-774.37579	272.34848	-1312.84717	-878.33459	119.14501	-1360.72058	-924.19482	112.72057	-1407.28723	-752.9314	37.51368	-1354.45728	-597.19641	1686.05188	-1439.78137	NaN	NaN	NaN	NaN	NaN	NaN	NaN	NaN	NaN	NaN	NaN	NaN	NaN	NaN	NaN	NaN	NaN	NaN	NaN	NaN	NaN	NaN	NaN	NaN	NaN	NaN	NaN	NaN	NaN	NaN
80	0.79	-483.92026	1647.15308	-1497.45593	-488.39383	1634.67737	-1366.4364	-618.88287	1593.53467	-1502.00928	-620.89343	1587.2146	-1373.4563	-622.52405	1432.94702	-1443.26917	-654.26666	1102.82153	-1431.24988	-509.76477	1356.92639	-1442.5448	-470.71631	1181.71985	-1443.72534	-693.65674	1263.41589	-1358.39124	-570.34021	1386.16833	-1603.8844	-629.45111	1194.80005	-1669.25623	-672.44025	1090.24011	-1672.4873	-705.22754	942.06177	-1685.49194	-704.60474	816.97205	-1628.53247	-751.9646	832.62579	-1678.85925	-752.34839	741.68768	-1664.51807	-558.12164	1392.9292	-1282.33679	-568.85327	1198.84985	-1182.9624	-529.12848	1087.14783	-1160.46326	-447.77954	1003.51898	-1146.47791	-317.31631	938.31067	-1192.83813	-352.27396	906.81842	-1144.60291	-273.77704	877.48438	-1149.90381	-463.80048	953.95959	-1536.79065	-479.72366	949.08325	-1318.36377	-624.27594	969.79755	-1521.39404	-628.37518	970.38428	-1353.51758	-460.39145	644.26141	-1609.34888	-404.69891	493.08673	-1579.78796	-374.17838	237.97655	-1574.10327	-325.37256	70.84599	-1534.37476	-359.9733	46.44626	-1488.46741	-178.97491	79.53429	-1527.77075	-574.53162	615.65186	-1279.25891	-595.88843	489.89133	-1301.09277	-765.18225	275.28061	-1313.36572	-873.2641	125.28312	-1361.57239	-918.7962	120.81631	-1408.49048	-752.07349	37.69312	-1354.85461	-585.94379	1685.6947	-1440.44592	NaN	NaN	NaN	NaN	NaN	NaN	NaN	NaN	NaN	NaN	NaN	NaN	NaN	NaN	NaN	NaN	NaN	NaN	NaN	NaN	NaN	NaN	NaN	NaN	NaN	NaN	NaN	NaN	NaN	NaN
81	0.8	-472.80661	1647.04724	-1498.15771	-477.47131	1634.36401	-1367.13672	-607.26672	1593.26624	-1502.56335	-610.04938	1586.91394	-1374.47339	-611.46326	1432.50659	-1444.62061	-641.85498	1102.32166	-1432.86414	-498.51151	1356.79041	-1443.68225	-458.58258	1181.8833	-1444.96643	-682.37183	1262.99548	-1360.0376	-558.88989	1386.14734	-1605.16016	-617.33325	1194.60242	-1670.44543	-660.02209	1089.91101	-1673.57007	-692.33124	941.60248	-1686.38989	-691.39203	816.64368	-1629.08386	-738.90863	832.30176	-1679.83643	-739.21326	741.15955	-1664.94531	-547.3504	1392.53931	-1283.7594	-557.87585	1198.42688	-1184.55444	-518.42407	1086.43274	-1162.22864	-437.91077	1001.75854	-1148.18982	-308.13498	934.81775	-1194.32397	-343.7287	903.77332	-1146.15649	-265.47131	873.36615	-1151.37109	-450.27454	954.14899	-1537.62903	-467.29974	949.05054	-1319.18909	-610.78156	969.58337	-1522.96033	-615.58789	969.90509	-1355.15271	-446.10971	644.07904	-1609.33459	-392.24487	492.33896	-1579.84583	-365.48325	236.70297	-1572.95752	-321.10626	69.12208	-1533.09106	-357.52768	46.86576	-1487.26697	-174.89484	71.62757	-1524.28711	-560.75739	615.09918	-1279.42639	-580.88434	488.9404	-1300.72742	-754.96008	278.4679	-1314.22217	-867.44971	132.12727	-1363.08667	-912.1441	129.66557	-1410.38074	-751.03027	37.8227	-1355.30481	-574.83575	1685.45801	-1441.29492	NaN	NaN	NaN	NaN	NaN	NaN	NaN	NaN	NaN	NaN	NaN	NaN	NaN	NaN	NaN	NaN	NaN	NaN	NaN	NaN	NaN	NaN	NaN	NaN	NaN	NaN	NaN	NaN	NaN	NaN
82	0.81	-461.74591	1647.36548	-1498.89294	-466.65997	1634.41479	-1367.79944	-595.91522	1593.36694	-1503.49426	-599.11145	1586.80481	-1375.56726	-600.50946	1432.26978	-1446.15747	-629.26379	1101.96094	-1434.49146	-487.13928	1357.06165	-1444.93396	-446.427	1182.29639	-1446.2019	-671.04059	1262.55676	-1361.88623	-547.35217	1386.36462	-1606.57166	-604.90424	1194.55188	-1671.79688	-647.19415	1089.60242	-1674.79236	-678.78223	941.08154	-1687.37488	-677.39374	816.22809	-1629.8783	-724.66937	831.34564	-1680.69336	-725.02881	740.45209	-1665.40137	-536.61835	1392.38513	-1285.15356	-546.87488	1198.05615	-1186.1416	-507.75278	1085.7002	-1164.33167	-428.37912	999.87091	-1150.05786	-299.49274	931.02863	-1195.93481	-335.59769	900.53674	-1147.78479	-257.90811	868.8819	-1152.88599	-436.82352	954.51379	-1538.42615	-454.47571	949.19122	-1320.06067	-597.45764	969.80914	-1524.67554	-602.72217	969.57758	-1356.72632	-432.16843	644.03339	-1609.88867	-380.11877	492.0697	-1580.56604	-357.05688	236.4086	-1571.84424	-318.10474	68.66406	-1533.32068	-355.5145	47.97661	-1487.60693	-171.15889	63.3037	-1520.75781	-546.33167	614.3996	-1279.67554	-564.98993	487.97345	-1300.13831	-743.97784	282.10452	-1315.12268	-860.71124	139.56149	-1364.59656	-904.06683	139.31924	-1412.63525	-749.86743	37.92883	-1355.79736	-563.86145	1685.55896	-1442.09387	NaN	NaN	NaN	NaN	NaN	NaN	NaN	NaN	NaN	NaN	NaN	NaN	NaN	NaN	NaN	NaN	NaN	NaN	NaN	NaN	NaN	NaN	NaN	NaN	NaN	NaN	NaN	NaN	NaN	NaN
83	0.82	-450.6196	1648.31897	-1499.55957	-455.94669	1634.9989	-1368.48022	-584.37073	1593.91125	-1504.45056	-588.26233	1587.09277	-1376.78833	-589.40295	1432.6626	-1447.81238	-616.76752	1101.94153	-1435.84485	-475.59695	1357.85425	-1446.13	-434.53815	1183.04358	-1447.37561	-659.70343	1262.32898	-1364.0719	-535.60681	1386.75476	-1608.12024	-592.1369	1194.50342	-1673.26038	-633.7998	1089.19128	-1676.0896	-664.3866	940.36896	-1688.31396	-662.57263	815.82428	-1630.86389	-710.133	830.88171	-1681.96924	-710.23859	739.8454	-1666.51733	-525.97528	1392.49182	-1286.38989	-536.0318	1197.77527	-1187.83313	-497.45383	1085.00269	-1166.22278	-419.21719	997.84894	-1151.97424	-291.21921	926.94159	-1197.46997	-328.01904	897.03809	-1149.41162	-250.84657	864.03412	-1154.34485	-423.27469	955.27032	-1539.2782	-441.56564	949.42096	-1321.12878	-584.46503	970.63788	-1526.26379	-589.8692	969.49243	-1358.15332	-418.83005	644.65704	-1610.92114	-367.82434	492.89777	-1581.55164	-348.97275	237.22499	-1572.88196	-314.5423	68.15132	-1534.09937	-353.79715	49.05432	-1489.31445	-168.35902	58.98803	-1517.97705	-531.20129	613.69525	-1279.85413	-548.24481	487.03915	-1299.47253	-731.50757	285.93634	-1316.29468	-851.88934	147.56438	-1366.2782	-894.13177	149.91779	-1415.08411	-748.98108	38.18083	-1356.17932	-552.98157	1686.11926	-1442.93152	NaN	NaN	NaN	NaN	NaN	NaN	NaN	NaN	NaN	NaN	NaN	NaN	NaN	NaN	NaN	NaN	NaN	NaN	NaN	NaN	NaN	NaN	NaN	NaN	NaN	NaN	NaN	NaN	NaN	NaN
84	0.83	-439.54944	1649.66846	-1500.25073	-445.24026	1635.93262	-1369.19324	-573.39172	1595.09558	-1505.87988	-577.45148	1587.8269	-1378.03442	-578.12921	1433.55908	-1449.32544	-604.48212	1102.34851	-1437.15955	-464.47571	1358.87402	-1447.21899	-422.71344	1184.22388	-1448.52185	-648.38684	1262.46655	-1366.38062	-523.95453	1387.42407	-1609.59497	-578.75861	1194.58679	-1674.65063	-620.02338	1088.94556	-1677.5636	-649.87811	940.13556	-1690.00623	-646.98322	815.38953	-1632.13501	-694.41888	829.92322	-1683.00281	-694.1947	739.10858	-1667.49927	-515.29517	1393.03784	-1287.37219	-525.40521	1197.66235	-1189.62903	-487.52597	1084.49133	-1168.12976	-410.53024	995.87335	-1153.98438	-283.72208	922.49713	-1198.88501	-321.26465	893.41797	-1151.11108	-244.79274	858.85022	-1155.672	-409.77032	956.52905	-1540.27539	-428.71573	949.98462	-1322.52222	-571.46362	971.93262	-1527.47021	-577.10663	969.54901	-1359.23914	-405.87061	646.58282	-1611.74548	-355.55087	494.58072	-1582.6543	-341.70654	238.64043	-1574.92798	-311.20804	68.27751	-1535.24023	-351.87442	50.11066	-1491.30237	-165.99112	55.45831	-1516.35913	-515.39496	613.2998	-1279.85706	-530.32184	486.35495	-1298.29089	-717.72858	290.311	-1317.39624	-841.80444	156.34059	-1367.93262	-882.24762	161.43405	-1417.76782	-748.22345	38.52319	-1356.64221	-542.11261	1687.04272	-1443.7688	NaN	NaN	NaN	NaN	NaN	NaN	NaN	NaN	NaN	NaN	NaN	NaN	NaN	NaN	NaN	NaN	NaN	NaN	NaN	NaN	NaN	NaN	NaN	NaN	NaN	NaN	NaN	NaN	NaN	NaN
